<svg xmlns="http://www.w3.org/2000/svg" width="24" height="28" viewBox="0 0 24 28">
    <defs>
        <style>
            .cls-1{fill:#fff}
        </style>
    </defs>
    <g id="small_replay_forward_10" transform="translate(-3.99 -1)">
        <path id="패스_1602" d="M12 5.6V0l7.5 7-7.5 7V8.4a9.512 9.512 0 0 0-3.5.661 9.088 9.088 0 0 0-2.861 1.8 8.42 8.42 0 0 0-1.93 2.67 7.893 7.893 0 0 0 0 6.535 8.42 8.42 0 0 0 1.93 2.67 9.088 9.088 0 0 0 2.861 1.8 9.6 9.6 0 0 0 7 0 9.088 9.088 0 0 0 2.861-1.8 8.42 8.42 0 0 0 1.93-2.67A7.882 7.882 0 0 0 21 16.8h3a10.532 10.532 0 0 1-.943 4.361 11.2 11.2 0 0 1-2.571 3.56 12.1 12.1 0 0 1-3.814 2.4 12.845 12.845 0 0 1-9.344 0 12.1 12.1 0 0 1-3.814-2.4 11.2 11.2 0 0 1-2.571-3.56 10.557 10.557 0 0 1 0-8.721 11.2 11.2 0 0 1 2.571-3.56 12.1 12.1 0 0 1 3.814-2.4A12.711 12.711 0 0 1 12 5.6z" class="cls-1" transform="translate(3.99 1)"/>
        <path id="패스_1603" d="M12.03 17.73h-1.371v-4.581l-1.629.436v-.97l2.855-.885h.145v6z" class="cls-1" transform="translate(2.906 4.27)"/>
        <path id="패스_1604" d="M16.28 15.187a3.777 3.777 0 0 1-.138 1.123 2.453 2.453 0 0 1-.4.781 1.551 1.551 0 0 1-.623.452 2.171 2.171 0 0 1-.817.137 2.22 2.22 0 0 1-.817-.137 1.6 1.6 0 0 1-.637-.452 2.108 2.108 0 0 1-.415-.781 3.806 3.806 0 0 1-.152-1.123v-1.014a3.777 3.777 0 0 1 .138-1.123 2.453 2.453 0 0 1 .4-.781 1.551 1.551 0 0 1 .623-.452 2.171 2.171 0 0 1 .817-.137 2.22 2.22 0 0 1 .817.137 1.6 1.6 0 0 1 .637.452 2.108 2.108 0 0 1 .415.781 3.806 3.806 0 0 1 .152 1.123zm-1.18-1.178a2.992 2.992 0 0 0-.055-.658 1.365 1.365 0 0 0-.166-.425.536.536 0 0 0-.263-.233.972.972 0 0 0-.346-.068.915.915 0 0 0-.346.068.6.6 0 0 0-.263.233 1.365 1.365 0 0 0-.166.425 2.992 2.992 0 0 0-.055.658v1.329a2.992 2.992 0 0 0 .06.662 1.459 1.459 0 0 0 .166.438.536.536 0 0 0 .263.233.972.972 0 0 0 .346.068.915.915 0 0 0 .346-.068.6.6 0 0 0 .263-.233 1.167 1.167 0 0 0 .15-.438 4.182 4.182 0 0 0 .055-.658v-1.333z" class="cls-1" transform="translate(3.764 4.32)"/>
    </g>
</svg>
