<svg xmlns="http://www.w3.org/2000/svg" width="24" height="24" viewBox="0 0 24 24">
    <path fill="none" d="M0 0H24V24H0z"/>
    <path fill="#fff" d="M6.83 4H19a2.006 2.006 0 0 1 2 2v12a1 1 0 0 1-.02.16l-3.38-3.38A.99.99 0 0 0 18 14v-1h-1.5v.5h-.17l-1.83-1.83V10.5h2v.5H18v-1a1 1 0 0 0-1-1h-3a1 1 0 0 0-1 1v.17zm12.95 18.61L17.17 20H5a2 2 0 0 1-2-2V6c0-.05.02-.1.02-.15L1.39 4.22 2.8 2.81l18.38 18.38zM11 13.83l-.83-.83H9.5v.5h-2v-3h.17L6.4 9.22A.99.99 0 0 0 6 10v4a1 1 0 0 0 1 1h3a1 1 0 0 0 1-1z"/>
</svg>
