<svg xmlns="http://www.w3.org/2000/svg" id="small_note_on" width="19.686" height="18.5" viewBox="0 0 19.686 18.5">
    <defs>
        <style>
            .cls-1{fill:none}.cls-2{fill:#ed7600}
        </style>
    </defs>
    <g id="wysiwyg-24px">
        <path id="사각형_392" d="M0 0H16.874V16.874H0z" class="cls-1"/>
        <path id="패스_1586" d="M13 3H4.25A1.25 1.25 0 0 0 3 4.25V13a1.25 1.25 0 0 0 1.25 1.25H13A1.254 1.254 0 0 0 14.249 13V4.25A1.25 1.25 0 0 0 13 3zm0 10H4.25V5.5H13zm-1.25-4.375H5.5v-1.25h6.25zm-2.5 2.5H5.5v-1.25h3.75z" class="cls-2" transform="translate(-.188 -.188)"/>
    </g>
    <g id="create-24px" transform="translate(6.562 5.376)">
        <path id="패스_1587" d="M0 0h13.124v13.124H0z" class="cls-1"/>
        <path id="패스_1588" d="M3 10.761V12.8h2.043l6.024-6.024-2.043-2.04zM12.646 5.2a.542.542 0 0 0 0-.768l-1.274-1.275a.542.542 0 0 0-.768 0l-1 1L11.65 6.2z" class="cls-2" transform="translate(-1.34 -1.339)"/>
    </g>
</svg>
