<svg xmlns="http://www.w3.org/2000/svg" width="23.406" height="21.995" viewBox="0 0 23.406 21.995">
    <defs>
        <style>
            .cls-1{fill:none}.cls-2{fill:#ed7600}
        </style>
    </defs>
    <g id="large_note_on" transform="translate(-198 -239.198)">
        <g id="wysiwyg-24px" transform="translate(198 239.198)">
            <path id="사각형_392" d="M0 0H20.062V20.062H0z" class="cls-1"/>
            <path id="패스_1586" d="M14.889 3H4.486A1.486 1.486 0 0 0 3 4.486v10.4a1.486 1.486 0 0 0 1.486 1.486h10.4a1.49 1.49 0 0 0 1.486-1.486v-10.4A1.486 1.486 0 0 0 14.889 3zm0 11.889H4.486V5.972h10.4zM13.4 9.687H5.972V8.2H13.4zm-2.97 2.973H5.972v-1.487h4.458z" class="cls-2" transform="translate(.344 .344)"/>
        </g>
        <g id="create-24px" transform="translate(205.802 245.59)">
            <path id="패스_1587" d="M0 0h15.6v15.6H0z" class="cls-1"/>
            <path id="패스_1588" d="M3 12.227v2.428h2.428l7.162-7.162-2.428-2.428zm11.469-6.612a.645.645 0 0 0 0-.913l-1.516-1.515a.645.645 0 0 0-.913 0l-1.185 1.185L13.284 6.8z" class="cls-2" transform="translate(-1.026 -1.025)"/>
        </g>
    </g>
</svg>
