<svg xmlns="http://www.w3.org/2000/svg" width="21.829" height="54.495" viewBox="0 0 21.829 54.495">
<path
      fill="#c14560"
      d="M20.829,53.496L1,53.496L1,20.297l0.1,-0.206 8.914,-18.524 0.901,-1.873 0.901,1.873 8.914,18.524 0.099,0.206v33.198z"
      stroke-linejoin="round"/>
<path
      fill="#ffffff"
      d="M19.829,52.496v-31.971l-8.914,-18.525 -8.915,18.525v31.97h17.829m0,2L2,54.495c-1.104,0 -2,-0.895 -2,-2v-31.97c0,-0.3 0.068,-0.597 0.198,-0.868l8.915,-18.524c0.333,-0.692 1.034,-1.133 1.802,-1.133s1.469,0.44 1.802,1.133l8.914,18.524c0.13,0.27 0.198,0.567 0.198,0.868v31.97c0,1.105 -0.895,2 -2,2z"
      stroke-linejoin="round"/>
<path
      fill="#ffe9bf"
      d="M2,20.65L19.834,20.65l-6.665,-14L8.674,6.65z"
      stroke-linejoin="round"/>
</svg>