<svg xmlns="http://www.w3.org/2000/svg" width="22" height="22" viewBox="0 0 22 22">
<path
      fill="#000000"
      d="M19.182,3A9.829,9.829 0,0 0,16 2.5,7.89 7.89,0 0,0 11,4a7.89,7.89 0,0 0,-5 -1.5A7.89,7.89 0,0 0,1 4v14.65a0.515,0.515 0,0 0,0.455 0.5c0.091,0 0.136,-0.05 0.227,-0.05A10.267,10.267 0,0 1,6 18a7.89,7.89 0,0 1,5 1.5,10.2 10.2,0 0,1 5,-1.5 8.56,8.56 0,0 1,4.318 1.05,0.378 0.378,0 0,0 0.227,0.05 0.515,0.515 0,0 0,0.455 -0.5L21,4a6,6 0,0 0,-1.818 -1zM19.182,16.5A9.676,9.676 0,0 0,16 16a10.2,10.2 0,0 0,-5 1.5L11,6a10.2,10.2 0,0 1,5 -1.5,9.676 9.676,0 0,1 3.182,0.5z"/>
  <path
      fill="#000000"
      d="M15.5,8.5a11.694,11.694 0,0 1,2.5 0.26L18,7.24A13.5,13.5 0,0 0,15.5 7a11.507,11.507 0,0 0,-4.5 0.83v1.66a9.283,9.283 0,0 1,4.5 -0.99z"/>
  <path
      fill="#000000"
      d="M11,10.49v1.66a9.283,9.283 0,0 1,4.5 -0.99,11.694 11.694,0 0,1 2.5,0.26L18,9.9a13.5,13.5 0,0 0,-2.5 -0.24,11.691 11.691,0 0,0 -4.5,0.83z"/>
  <path
      fill="#000000"
      d="M15.5,12.33a11.507,11.507 0,0 0,-4.5 0.83v1.66a9.283,9.283 0,0 1,4.5 -0.99,11.694 11.694,0 0,1 2.5,0.26v-1.52a12.7,12.7 0,0 0,-2.5 -0.24z"/>
</svg>