<svg xmlns="http://www.w3.org/2000/svg" width="22" height="22" viewBox="0 0 22 22">
<path
      fill="#000000"
      d="M18.542,8l-1.107,1.62a6.826,6.826 0,0 1,-0.2 6.63L4.766,16.25a6.848,6.848 0,0 1,1 -8.294A7.349,7.349 0,0 1,14.223 6.5l1.665,-1.076a9.2,9.2 0,0 0,-11.056 1.02,8.569 8.569,0 0,0 -1.614,10.681A1.809,1.809 0,0 0,4.766 18h12.462a1.81,1.81 0,0 0,1.566 -0.875,8.54 8.54,0 0,0 -0.243,-9.132zM9.733,13.985a1.836,1.836 0,0 0,2.547 0l5.093,-7.426 -7.64,4.951a1.715,1.715 0,0 0,0 2.475z"/>
</svg>