<svg xmlns="http://www.w3.org/2000/svg" width="24.116" height="54.495" viewBox="0 0 24.116 54.495">
<path
      fill="#f5f5f5"
      d="M23.028,53.495L1.066,53.495L1.066,1.001h21.962v52.495z"
      stroke-linejoin="round"
      stroke="#ffffff"
      stroke-linecap="round"/>
<path
      fill="#ffffff"
      d="M22.028,52.495L22.028,2.001L2.066,2.001v50.495h19.962m0,2L2.066,54.496c-1.104,0 -2,-0.895 -2,-2L0.066,2.001c0,-1.104 0.896,-2 2,-2h19.962c1.104,0 2,0.896 2,2v50.495c0,1.105 -0.896,2 -2,2z"
      stroke-linejoin="round"
      stroke-linecap="round"/>
<path
      fill="#808080"
      d="M2,10.023L22.116,10.023L22.116,52.496L2,52.496z"
      stroke-linejoin="round"
      stroke="#ffffff"
      stroke-linecap="round"
      stroke-width="2"/>
<path
      fill="#ffffff"
      fill-opacity="0.0"
      d="M1,9.023L23.116,9.023L23.116,53.496L1,53.496z"
      stroke-linejoin="round"
      stroke="#ffffff"
      stroke-linecap="round"
      stroke-width="2"/>
</svg>