<svg xmlns="http://www.w3.org/2000/svg" id="large_info_button" width="19.752" height="17.283" viewBox="0 0 19.752 17.283">
    <defs>
        <style>
            .cls-1{fill:#fff}
        </style>
    </defs>
    <g id="그룹_285">
        <g id="그룹_284">
            <circle id="타원_28" cx="3.704" cy="3.704" r="3.704" class="cls-1" transform="translate(4.938)"/>
            <path id="패스_1581" d="M10.644 14.011C7.818 13.9 2 15.467 2 18.623v2.312h9.876a7.531 7.531 0 0 1-1.232-6.924z" class="cls-1" transform="translate(-2 -5.357)"/>
            <path id="패스_1582" d="M19.338 17.945a3.816 3.816 0 0 0 .562-1.995 3.95 3.95 0 1 0-3.95 3.95 3.91 3.91 0 0 0 1.995-.563l2.538 2.538 1.393-1.393zm-3.388-.02a1.975 1.975 0 1 1 1.975-1.975 1.981 1.981 0 0 1-1.975 1.976z" class="cls-1" transform="translate(-2.124 -4.593)"/>
        </g>
    </g>
</svg>
